<svg version="1.2" baseProfile="tiny-ps" xmlns="http://www.w3.org/2000/svg" viewBox="0 0 200 200" width="200" height="200">
	<title>logoLetMeAsk-svg</title>
	<defs>
		<linearGradient id="grd1" gradientUnits="userSpaceOnUse"  x1="109.679" y1="81.999" x2="121.758" y2="116.111">
			<stop offset="0" stop-color="#485bff"  />
			<stop offset="1" stop-color="#ff59f8"  />
		</linearGradient>
		<linearGradient id="grd2" gradientUnits="userSpaceOnUse"  x1="109.679" y1="81.999" x2="121.758" y2="116.111">
			<stop offset="0" stop-color="#485bff"  />
			<stop offset="1" stop-color="#ff59f8"  />
		</linearGradient>
		<linearGradient id="grd3" gradientUnits="userSpaceOnUse"  x1="109.679" y1="81.999" x2="121.758" y2="116.11">
			<stop offset="0" stop-color="#485bff"  />
			<stop offset="1" stop-color="#ff59f8"  />
		</linearGradient>
		<linearGradient id="grd4" gradientUnits="userSpaceOnUse"  x1="103.084" y1="66" x2="163.295" y2="140.547">
			<stop offset="0" stop-color="#485bff"  />
			<stop offset="1" stop-color="#ff59f8"  />
		</linearGradient>
	</defs>
	<style>
		tspan { white-space:pre }
		.shp0 { fill: #29292e } 
		.shp1 { fill: url(#grd1) } 
		.shp2 { fill: url(#grd2) } 
		.shp3 { fill: url(#grd3) } 
		.shp4 { fill: none;stroke: url(#grd4);stroke-width: 4.301 } 
	</style>
	<path id="Layer" class="shp0" d="M22 82L26.47 82L26.47 103.27L22 103.27L22 82Z" />
	<path id="Layer" fill-rule="evenodd" class="shp0" d="M44.59 95.62C44.59 95.68 44.56 96.08 44.5 96.82L32.83 96.82C33.04 97.78 33.54 98.53 34.32 99.09C35.11 99.64 36.08 99.92 37.25 99.92C38.05 99.92 38.76 99.8 39.37 99.57C40 99.33 40.58 98.94 41.12 98.43L43.5 101.01C42.04 102.67 39.92 103.5 37.13 103.5C35.39 103.5 33.85 103.17 32.52 102.5C31.18 101.81 30.15 100.87 29.42 99.66C28.69 98.46 28.33 97.09 28.33 95.56C28.33 94.05 28.68 92.69 29.39 91.49C30.12 90.27 31.1 89.32 32.34 88.65C33.61 87.96 35.01 87.62 36.56 87.62C38.07 87.62 39.44 87.94 40.66 88.59C41.88 89.24 42.84 90.18 43.53 91.4C44.23 92.61 44.59 94.01 44.59 95.62ZM36.59 91C35.57 91 34.72 91.29 34.04 91.86C33.35 92.44 32.93 93.22 32.77 94.21L40.37 94.21C40.22 93.24 39.8 92.46 39.11 91.89C38.42 91.3 37.58 91 36.59 91Z" />
	<path id="Layer" class="shp0" d="M56.37 102.53C55.93 102.85 55.38 103.1 54.73 103.27C54.1 103.43 53.43 103.5 52.73 103.5C50.89 103.5 49.47 103.03 48.45 102.1C47.46 101.16 46.96 99.79 46.96 97.97L46.96 91.63L44.58 91.63L44.58 88.19L46.96 88.19L46.96 84.44L51.44 84.44L51.44 88.19L55.28 88.19L55.28 91.63L51.44 91.63L51.44 97.91C51.44 98.56 51.6 99.07 51.92 99.43C52.27 99.78 52.75 99.95 53.36 99.95C54.06 99.95 54.67 99.76 55.16 99.37L56.37 102.53Z" />
	<path id="Layer" class="shp0" d="M77.49 87.62C79.42 87.62 80.95 88.19 82.07 89.34C83.22 90.47 83.79 92.17 83.79 94.44L83.79 103.27L79.32 103.27L79.32 95.13C79.32 93.91 79.06 93 78.55 92.41C78.05 91.8 77.33 91.49 76.4 91.49C75.35 91.49 74.51 91.83 73.9 92.52C73.29 93.19 72.98 94.19 72.98 95.53L72.98 103.27L68.51 103.27L68.51 95.13C68.51 92.7 67.54 91.49 65.59 91.49C64.56 91.49 63.73 91.83 63.12 92.52C62.51 93.19 62.2 94.19 62.2 95.53L62.2 103.27L57.73 103.27L57.73 87.85L62 87.85L62 89.63C62.58 88.98 63.27 88.48 64.1 88.13C64.94 87.79 65.85 87.62 66.85 87.62C67.94 87.62 68.92 87.84 69.8 88.28C70.68 88.7 71.39 89.32 71.92 90.14C72.55 89.34 73.35 88.72 74.3 88.28C75.28 87.84 76.34 87.62 77.49 87.62Z" />
	<path id="Layer" fill-rule="evenodd" class="shp0" d="M101.93 95.62C101.93 95.68 101.91 96.08 101.85 96.82L90.18 96.82C90.39 97.78 90.89 98.53 91.67 99.09C92.45 99.64 93.43 99.92 94.59 99.92C95.4 99.92 96.1 99.8 96.72 99.57C97.35 99.33 97.93 98.94 98.47 98.43L100.84 101.01C99.39 102.67 97.27 103.5 94.48 103.5C92.74 103.5 91.2 103.17 89.86 102.5C88.53 101.81 87.49 100.87 86.77 99.66C86.04 98.46 85.68 97.09 85.68 95.56C85.68 94.05 86.03 92.69 86.74 91.49C87.46 90.27 88.45 89.32 89.69 88.65C90.95 87.96 92.36 87.62 93.91 87.62C95.42 87.62 96.78 87.94 98.01 88.59C99.23 89.24 100.19 90.18 100.87 91.4C101.58 92.61 101.93 94.01 101.93 95.62ZM93.93 91C92.92 91 92.07 91.29 91.38 91.86C90.69 92.44 90.27 93.22 90.12 94.21L97.72 94.21C97.57 93.24 97.15 92.46 96.46 91.89C95.77 91.3 94.93 91 93.93 91Z" />
	<path id="Layer" fill-rule="evenodd" class="shp1" d="M128.09 87.85L125.02 103.27L120.77 103.27L121.06 101.75C119.78 102.92 118.2 103.5 116.33 103.5C115.13 103.5 114.02 103.23 113 102.67C111.99 102.12 111.18 101.32 110.57 100.29C109.97 99.24 109.68 98.01 109.68 96.59C109.68 94.89 110.05 93.36 110.8 92.01C111.56 90.63 112.59 89.56 113.89 88.79C115.19 88.01 116.63 87.62 118.19 87.62C120.56 87.62 122.24 88.39 123.21 89.94L123.61 87.85L128.09 87.85ZM117.71 99.8C118.59 99.8 119.37 99.59 120.06 99.17C120.75 98.73 121.28 98.13 121.66 97.37C122.05 96.6 122.24 95.72 122.24 94.73C122.24 93.68 121.92 92.85 121.29 92.23C120.68 91.62 119.82 91.32 118.71 91.32C117.83 91.32 117.05 91.54 116.36 91.98C115.67 92.4 115.14 92.99 114.75 93.75C114.37 94.52 114.18 95.4 114.18 96.39C114.18 97.44 114.49 98.28 115.1 98.89C115.73 99.5 116.6 99.8 117.71 99.8Z" />
	<path id="Layer" class="shp2" d="M133.63 103.5C132.29 103.5 131.02 103.36 129.82 103.07C128.63 102.77 127.71 102.38 127.04 101.9L128.76 98.66C129.43 99.1 130.24 99.45 131.19 99.72C132.17 99.99 133.14 100.12 134.12 100.12C135.13 100.12 135.89 100 136.38 99.75C136.88 99.48 137.13 99.11 137.13 98.63C137.13 98.25 136.91 97.97 136.47 97.8C136.03 97.63 135.32 97.44 134.35 97.25C133.24 97.04 132.32 96.81 131.6 96.56C130.89 96.32 130.27 95.91 129.73 95.36C129.22 94.79 128.96 94.01 128.96 93.04C128.96 91.34 129.67 90.01 131.08 89.05C132.51 88.1 134.39 87.62 136.7 87.62C137.77 87.62 138.81 87.73 139.82 87.96C140.84 88.19 141.7 88.51 142.41 88.91L140.8 92.18C139.54 91.39 138.02 91 136.24 91C135.27 91 134.52 91.15 134 91.43C133.51 91.72 133.26 92.08 133.26 92.52C133.26 92.92 133.48 93.22 133.92 93.41C134.36 93.58 135.09 93.77 136.13 93.98C137.22 94.19 138.11 94.42 138.79 94.67C139.5 94.9 140.11 95.29 140.63 95.85C141.14 96.4 141.4 97.16 141.4 98.11C141.4 99.83 140.68 101.16 139.22 102.1C137.79 103.03 135.93 103.5 133.63 103.5Z" />
	<path id="Layer" class="shp3" d="M153.59 94.56L158.9 103.27L153.71 103.27L150.04 97.28L147.32 99.55L146.57 103.27L142.1 103.27L146.34 82L150.81 82L148.43 93.9L155.83 87.85L161.65 87.85L153.59 94.56Z" />
	<path id="Layer" class="shp4" d="M103.08 78.9L103.08 71.73C103.08 68.57 105.65 66 108.82 66L170.46 66C173.63 66 176.2 68.57 176.2 71.73L176.2 111.88C176.2 115.04 173.63 117.61 170.46 117.61L160.43 117.61L163.78 133.26C164.07 134.63 162.44 135.56 161.41 134.61L146.09 120.48L108.82 120.48C105.65 120.48 103.08 117.91 103.08 114.74L103.08 111.88" />
</svg>